<?xml version="1.0" standalone="no"?><!DOCTYPE svg PUBLIC "-//W3C//DTD SVG 1.1//EN" "http://www.w3.org/Graphics/SVG/1.1/DTD/svg11.dtd"><svg t="1729576547286" class="icon" viewBox="0 0 1024 1024" version="1.1" xmlns="http://www.w3.org/2000/svg" p-id="6498" xmlns:xlink="http://www.w3.org/1999/xlink" width="200" height="200"><path d="M1024.014933 744.234667c-535.338667 69.973333-917.461333 154.026667-923.136-190.890667 0 0 11.690667-133.674667 175.616-142.08 0 0 5.546667-118.698667 130.773334-132.138667 67.328-7.296 143.786667 62.037333 152.106666 135.04 0 0 165.674667-30.677333 172.842667 130.858667 2.517333 56.32-10.154667 152.021333-169.941333 147.84 0 0-92.458667-12.544-105.002667-155.477333-26.026667 276.693333 374.058667 260.608 379.818667 9.301333 2.56-108.672-67.072-220.458667-223.829334-199.509333-85.930667-216.149333-314.666667-203.733333-399.786666-3.242667-121.770667 0-214.826667 93.696-213.461334 216.064 4.693333 393.813333 552.704 275.072 1024 184.234667z" p-id="6499" fill="#1296db"></path></svg>